# This file uses centimeters as units for non-parametric coordinates.

mtllib Body.mtl
g default
v -1.329742 12.131252 -0.435157
v 1.329742 12.131252 -0.365151
v -1.329742 27.462383 -0.282637
v 1.329742 27.462383 -0.182069
v -1.329742 27.462383 -1.108116
v 1.329742 27.462383 -1.208685
v -1.329742 12.131252 -1.420116
v 1.329742 12.131252 -1.490123
v -0.012170 27.462383 0.674477
v -0.012170 27.462383 -2.065231
v -0.012170 12.413186 -1.821650
v -0.012170 13.035093 0.442217
v 1.804198 27.462383 -0.701316
v -0.012170 28.628817 -0.711227
v -1.804198 27.462383 -0.700153
v -1.804198 12.131252 -0.933335
v -0.012170 13.035093 -0.943487
v 1.804198 12.131252 -0.934145
v 2.166399 19.997552 -1.367495
v -0.019827 19.997552 -2.504546
v -2.166399 19.997552 -1.643586
v -2.939376 19.997552 -0.664608
v -2.166399 19.997552 0.337290
v -0.019827 19.997552 1.198250
v 2.166399 19.997552 0.061199
v 2.939376 19.997552 -0.661413
v -0.019116 23.871500 -2.648782
v -2.088683 23.871500 -1.491600
v -2.833930 23.871500 -0.684511
v -2.088683 23.871500 0.141473
v -0.019116 23.871500 1.298656
v 2.088683 23.871500 0.075086
v 2.833930 23.871500 -0.683743
v 2.088683 23.871500 -1.425212
vt 0.375000 0.000000
vt 0.625000 0.000000
vt 0.375000 0.250000
vt 0.625000 0.250000
vt 0.375000 0.500000
vt 0.625000 0.500000
vt 0.375000 0.750000
vt 0.625000 0.750000
vt 0.375000 1.000000
vt 0.625000 1.000000
vt 0.875000 0.000000
vt 0.875000 0.250000
vt 0.125000 0.000000
vt 0.125000 0.250000
vt 0.499157 0.250000
vt 0.499157 0.500000
vt 0.499157 0.750000
vt 0.499157 0.000000
vt 0.499157 1.000000
vt 0.625000 0.376446
vt 0.751446 0.250000
vt 0.499157 0.376446
vt 0.248554 0.250000
vt 0.375000 0.376446
vt 0.248554 0.000000
vt 0.375000 0.873554
vt 0.499157 0.873554
vt 0.625000 0.873554
vt 0.751446 0.000000
vt 0.625000 0.620176
vt 0.875000 0.129824
vt 0.499157 0.620176
vt 0.125000 0.129824
vt 0.375000 0.620176
vt 0.248554 0.129824
vt 0.375000 0.129824
vt 0.499157 0.129824
vt 0.625000 0.129824
vt 0.751446 0.129824
vt 0.499157 0.557810
vt 0.125000 0.192190
vt 0.375000 0.557810
vt 0.248554 0.192190
vt 0.375000 0.192190
vt 0.499157 0.192190
vt 0.625000 0.192190
vt 0.751446 0.192190
vt 0.625000 0.557810
vt 0.875000 0.192190
vn -0.472107 0.085001 0.877434
vn 0.020880 0.084590 0.996197
vn -0.005875 0.195259 0.980734
vn -0.521117 0.177431 0.834838
vn -0.434906 0.699580 0.566962
vn 0.008975 0.788142 0.615429
vn 0.000889 0.999999 -0.000948
vn -0.531748 0.846876 0.006637
vn -0.521969 0.168260 -0.836204
vn -0.005791 0.184549 -0.982806
vn 0.020816 0.073724 -0.997061
vn -0.472316 0.074838 -0.878246
vn 0.481317 -0.864339 0.145777
vn -0.008875 -0.990782 0.135174
vn -0.022259 -0.988326 -0.150723
vn 0.525481 -0.840449 -0.132342
vn 0.706101 0.102469 0.700658
vn 0.992156 0.125009 -0.000309
vn 0.962741 0.270416 -0.002486
vn 0.708474 0.202315 0.676116
vn -0.990945 0.134271 -0.000229
vn -0.742635 0.110892 0.660451
vn -0.697131 0.215496 0.683791
vn -0.956542 0.291588 -0.002063
vn 0.415109 0.726179 0.548040
vn 0.499552 0.866265 0.005812
vn 0.495232 0.049629 -0.867342
vn 0.510699 0.147829 -0.846955
vn -0.468212 -0.872402 0.140331
vn -0.516503 -0.847058 -0.125368
vn 0.495021 0.059714 0.866827
vn 0.509954 0.157182 0.845719
vn 0.417888 0.718096 -0.556514
vn 0.008511 0.780024 -0.625692
vn -0.438195 0.690706 -0.575247
vn -0.735373 0.104016 -0.669633
vn -0.690402 0.207447 -0.693045
vn 0.366632 -0.791941 0.488272
vn -0.009259 -0.858762 0.512291
vn -0.354426 -0.809400 0.468246
vn 0.698580 0.094353 -0.709284
vn 0.701841 0.193788 -0.685467
vn 0.029798 -0.068018 -0.997239
vn 0.033481 -0.044723 -0.998438
vn 0.421663 -0.039520 -0.905891
vn 0.380055 -0.053876 -0.923394
vn -0.375230 -0.042002 -0.925980
vn -0.336208 -0.073451 -0.938919
vn -0.758232 -0.093176 -0.645292
vn -0.988637 -0.149806 -0.012480
vn -0.996979 -0.076979 0.010372
vn -0.760782 -0.048662 -0.647181
vn -0.761595 -0.137367 0.633327
vn -0.766949 -0.073398 0.637496
vn -0.420953 -0.116689 0.899546
vn 0.032033 -0.118355 0.992455
vn 0.034138 -0.070598 0.996921
vn -0.426086 -0.064733 0.902364
vn 0.469904 -0.061463 0.880575
vn 0.461435 -0.096120 0.881952
vn 0.714090 -0.120146 0.689667
vn 0.990991 -0.133006 -0.015696
vn 0.996939 -0.077413 0.010968
vn 0.709982 -0.070451 0.700687
vn 0.703056 -0.042617 -0.709857
vn 0.709406 -0.071292 -0.701185
s 1
g Body
usemtl initialShadingGroup
f 30/44/1 31/45/2 9/15/3 3/3/4
s 2
f 3/3/5 9/15/6 14/22/7 15/24/8
s 3
f 5/5/9 10/16/10 27/40/11 28/42/12
s 4
f 16/26/13 17/27/14 12/19/15 1/9/16
s 5
f 32/46/17 33/47/18 13/21/19 4/4/20
s 6
f 29/43/21 30/44/22 3/3/23 15/23/24
s 2
f 9/15/6 4/4/25 13/20/26 14/22/7
s 3
f 34/48/27 27/40/11 10/16/10 6/6/28
s 4
f 12/19/15 17/27/14 18/28/29 2/10/30
s 1
f 9/15/3 31/45/2 32/46/31 4/4/32
s 2
f 14/22/7 13/20/26 6/6/33 10/16/34
f 15/24/8 14/22/7 10/16/34 5/5/35
s 6
f 28/41/36 29/43/21 15/23/24 5/14/37
s 4
f 7/7/38 11/17/39 17/27/14 16/26/13
f 18/28/29 17/27/14 11/17/39 8/8/40
s 5
f 13/21/19 33/47/18 34/49/41 6/12/42
s 3
f 11/17/43 20/32/44 19/30/45 8/8/46
f 21/34/47 20/32/44 11/17/43 7/7/48
s 6
f 7/13/49 16/25/50 22/35/51 21/33/52
f 16/25/50 1/1/53 23/36/54 22/35/51
s 1
f 1/1/55 12/18/56 24/37/57 23/36/58
f 25/38/59 24/37/57 12/18/56 2/2/60
s 5
f 2/2/61 18/29/62 26/39/63 25/38/64
f 19/31/65 26/39/63 18/29/62 8/11/66
s 3
f 28/42/12 27/40/11 20/32/44 21/34/47
s 6
f 21/33/52 22/35/51 29/43/21 28/41/36
f 22/35/51 23/36/54 30/44/22 29/43/21
s 1
f 23/36/58 24/37/57 31/45/2 30/44/1
f 32/46/31 31/45/2 24/37/57 25/38/59
s 5
f 25/38/64 26/39/63 33/47/18 32/46/17
f 34/49/41 33/47/18 26/39/63 19/31/65
s 3
f 20/32/44 27/40/11 34/48/27 19/30/45
