# This file uses centimeters as units for non-parametric coordinates.

mtllib L_Arm1.mtl
g default
v 4.190925 17.201696 -0.420545
v 5.305358 17.729177 -0.420545
v 2.615131 21.874357 -0.423849
v 3.392794 22.242437 -0.423849
v 2.615131 21.874357 -1.122124
v 3.392794 22.242437 -1.122124
v 4.190925 17.201696 -1.264912
v 5.305358 17.729177 -1.264912
v 3.134676 19.793419 -0.485600
v 3.134676 19.793419 -1.333808
v 4.200518 20.297901 -1.333808
v 4.200518 20.297901 -0.485600
v 2.860371 22.582848 -0.342485
v 2.860371 22.582848 -1.040761
v 3.662782 20.043381 -1.333808
v 4.949753 16.949240 -1.264912
v 4.949753 16.949240 -0.420545
v 3.662782 20.043381 -0.485600
vt 0.375000 0.000000
vt 0.625000 0.000000
vt 0.375000 0.250000
vt 0.625000 0.250000
vt 0.375000 0.500000
vt 0.625000 0.500000
vt 0.375000 0.750000
vt 0.625000 0.750000
vt 0.375000 1.000000
vt 0.625000 1.000000
vt 0.875000 0.000000
vt 0.875000 0.250000
vt 0.125000 0.000000
vt 0.125000 0.250000
vt 0.375000 0.132708
vt 0.125000 0.132708
vt 0.375000 0.617292
vt 0.625000 0.617292
vt 0.875000 0.132708
vt 0.625000 0.132708
vt 0.498871 0.250000
vt 0.498871 0.500000
vt 0.498871 0.617292
vt 0.498871 0.750000
vt 0.498871 0.000000
vt 0.498871 1.000000
vt 0.498871 0.132708
vn 0.000044 0.022895 0.999738
vn -0.008864 0.019180 0.999777
vn -0.000668 -0.003590 0.999993
vn -0.013277 -0.005022 0.999899
vn -0.944989 0.327103 0.000000
vn -0.435510 0.900184 0.000000
vn -0.421150 0.906991 0.000000
vn -0.944989 0.327103 0.000000
vn -0.008022 0.021352 -0.999740
vn -0.010845 0.025266 -0.999622
vn 0.009387 -0.020312 -0.999750
vn -0.000047 -0.024246 -0.999706
vn -0.315681 -0.948866 0.000000
vn 0.427816 -0.903866 0.000000
vn 0.427816 -0.903866 0.000000
vn -0.315681 -0.948866 0.000000
vn 0.918632 0.395115 0.000000
vn 0.918632 0.395115 0.000000
vn 0.920574 0.390569 0.000000
vn 0.920637 0.390420 0.000000
vn -0.926047 -0.377408 0.000000
vn -0.926047 -0.377408 0.000000
vn -0.946599 -0.322415 0.000000
vn -0.946017 -0.324118 0.000000
vn -0.970218 -0.242233 0.000000
vn -0.970218 -0.242233 0.000000
vn -0.022155 0.102300 -0.994507
vn -0.045912 0.094627 -0.994454
vn 0.923498 0.383603 0.000000
vn 0.923498 0.383603 0.000000
vn 0.020027 -0.036480 0.999134
vn -0.037020 -0.054834 0.997809
vn 0.538672 0.842516 0.000000
vn 0.538672 0.842516 0.000000
vn -0.068557 0.087250 -0.993825
vn -0.015781 0.024766 -0.999569
vn 0.018916 -0.016335 -0.999688
vn 0.909888 -0.414854 0.000000
vn 0.909888 -0.414854 0.000000
vn -0.017862 0.015425 0.999722
vn 0.018608 0.001860 0.999825
vn 0.074290 -0.018877 0.997058
s 1
g L_Arm1 group9
usemtl initialShadingGroup
f 1/1/1 17/25/2 18/27/3 9/15/4
s 2
f 3/3/5 13/21/6 14/22/7 5/5/8
s 3
f 10/17/9 15/23/10 16/24/11 7/7/12
s 4
f 7/7/13 16/24/14 17/26/15 1/9/16
s 5
f 2/2/17 8/11/18 11/19/19 12/20/20
s 6
f 7/13/21 1/1/22 9/15/23 10/16/24
f 10/16/24 9/15/23 3/3/25 5/14/26
s 3
f 5/5/27 14/22/28 15/23/10 10/17/9
s 5
f 12/20/20 11/19/19 6/12/29 4/4/30
s 1
f 9/15/4 18/27/3 13/21/31 3/3/32
s 2
f 13/21/6 4/4/33 6/6/34 14/22/7
s 3
f 15/23/10 14/22/28 6/6/35 11/18/36
f 16/24/11 15/23/10 11/18/36 8/8/37
s 4
f 17/26/15 16/24/14 8/8/38 2/10/39
s 1
f 18/27/3 17/25/2 2/2/40 12/20/41
f 13/21/31 18/27/3 12/20/41 4/4/42
