# This file uses centimeters as units for non-parametric coordinates.

mtllib L_Hip.mtl
g default
v 0.621718 9.086171 -0.051047
v 1.958724 9.086213 -0.479601
v -0.018985 13.001820 -0.198480
v 2.065175 15.127064 0.076776
v -0.018985 13.001820 -1.755052
v 2.444423 15.664169 -0.621499
v 0.665983 9.086171 -1.688362
v 1.958724 9.086213 -1.177876
v 0.771018 11.114893 0.150018
v 0.717001 11.456797 -1.751161
v 2.113050 10.802773 -1.271991
v 2.113050 10.802773 -0.343264
v 1.263953 12.632426 -0.210841
v 1.263953 12.632426 -1.637669
v 1.319156 10.834242 -1.816730
v 1.202873 9.106929 -1.656258
v 1.202873 9.106929 0.002987
v 1.319156 10.834242 -0.326609
vt 0.375000 0.000000
vt 0.625000 0.000000
vt 0.375000 0.250000
vt 0.625000 0.250000
vt 0.375000 0.500000
vt 0.625000 0.500000
vt 0.375000 0.750000
vt 0.625000 0.750000
vt 0.375000 1.000000
vt 0.625000 1.000000
vt 0.875000 0.000000
vt 0.875000 0.250000
vt 0.125000 0.000000
vt 0.125000 0.250000
vt 0.375000 0.132708
vt 0.125000 0.132708
vt 0.375000 0.617292
vt 0.625000 0.617292
vt 0.875000 0.132708
vt 0.625000 0.132708
vt 0.498871 0.250000
vt 0.498871 0.500000
vt 0.498871 0.617292
vt 0.498871 0.750000
vt 0.498871 0.000000
vt 0.498871 1.000000
vt 0.498871 0.132708
vn 0.351908 0.007147 0.936007
vn 0.329098 0.018518 0.944114
vn 0.180774 -0.004304 0.983515
vn 0.314104 0.093544 0.944769
vn 0.276687 0.960960 0.000000
vn -0.655487 0.752388 -0.065190
vn -0.543855 0.837126 -0.058670
vn 0.276687 0.960960 0.000000
vn 0.039238 0.043698 -0.998274
vn 0.379524 0.012297 -0.925100
vn 0.295778 -0.085611 -0.951413
vn -0.056769 -0.052004 -0.997032
vn 0.037068 -0.999313 0.000498
vn 0.012996 -0.999916 0.000312
vn 0.011559 -0.999933 0.000301
vn 0.037068 -0.999313 0.000498
vn 0.995983 -0.089543 0.000000
vn 0.995983 -0.089543 0.000000
vn 0.986063 -0.064329 0.153435
vn 0.985099 -0.063210 0.159952
vn -0.998950 0.045262 0.007126
vn -0.998950 0.045262 0.007126
vn -0.991423 -0.130571 -0.005663
vn -0.981244 -0.192502 -0.010196
vn -0.912434 -0.408389 -0.026128
vn -0.912434 -0.408390 -0.026128
vn 0.062623 0.066995 -0.995786
vn 0.449072 0.080699 -0.889844
vn 0.976274 -0.054553 0.209557
vn 0.976274 -0.054553 0.209557
vn 0.068489 -0.022365 0.997401
vn 0.298082 0.128105 0.945905
vn -0.932561 0.352641 -0.077298
vn -0.932561 0.352641 -0.077298
vn 0.538265 0.082159 -0.838761
vn 0.542319 0.028068 -0.839703
vn 0.545494 -0.104339 -0.831594
vn -0.027397 -0.999625 0.000000
vn -0.027397 -0.999625 0.000000
vn 0.307388 0.029221 0.951136
vn 0.090203 -0.046408 0.994842
vn -0.033700 -0.087695 0.995577
s 1
g L_Hip group9
usemtl initialShadingGroup
f 1/1/1 17/25/2 18/27/3 9/15/4
s 2
f 3/3/5 13/21/6 14/22/7 5/5/8
s 3
f 10/17/9 15/23/10 16/24/11 7/7/12
s 4
f 7/7/13 16/24/14 17/26/15 1/9/16
s 5
f 2/2/17 8/11/18 11/19/19 12/20/20
s 6
f 7/13/21 1/1/22 9/15/23 10/16/24
f 10/16/24 9/15/23 3/3/25 5/14/26
s 3
f 5/5/27 14/22/28 15/23/10 10/17/9
s 5
f 12/20/20 11/19/19 6/12/29 4/4/30
s 1
f 9/15/4 18/27/3 13/21/31 3/3/32
s 2
f 13/21/6 4/4/33 6/6/34 14/22/7
s 3
f 15/23/10 14/22/28 6/6/35 11/18/36
f 16/24/11 15/23/10 11/18/36 8/8/37
s 4
f 17/26/15 16/24/14 8/8/38 2/10/39
s 1
f 18/27/3 17/25/2 2/2/40 12/20/41
f 13/21/31 18/27/3 12/20/41 4/4/42
