# This file uses centimeters as units for non-parametric coordinates.

mtllib L_Pinky.mtl
g default
v 6.419647 9.564427 -3.251730
v 7.035896 9.623133 -3.464766
v 6.222688 11.307782 -2.805873
v 7.000770 11.120471 -2.879215
v 6.232549 11.449879 -3.646200
v 7.021505 11.449880 -3.901270
v 6.367466 9.917803 -4.156288
v 7.060007 9.917802 -4.293830
vt 0.375000 0.000000
vt 0.625000 0.000000
vt 0.375000 0.250000
vt 0.625000 0.250000
vt 0.375000 0.500000
vt 0.625000 0.500000
vt 0.375000 0.750000
vt 0.625000 0.750000
vt 0.375000 1.000000
vt 0.625000 1.000000
vt 0.875000 0.000000
vt 0.875000 0.250000
vt 0.125000 0.000000
vt 0.125000 0.250000
vn 0.167084 -0.288129 0.942902
vn 0.167084 -0.288129 0.942902
vn 0.167084 -0.288129 0.942902
vn 0.167084 -0.288129 0.942902
vn 0.165463 0.955402 0.244600
vn 0.165463 0.955402 0.244600
vn 0.165463 0.955402 0.244600
vn 0.165463 0.955402 0.244600
vn -0.247296 0.260896 -0.933155
vn -0.247296 0.260896 -0.933155
vn -0.247296 0.260896 -0.933155
vn -0.247296 0.260896 -0.933155
vn -0.051500 -0.935726 -0.348949
vn -0.051500 -0.935726 -0.348949
vn -0.051500 -0.935726 -0.348949
vn -0.051500 -0.935726 -0.348949
vn 0.999463 0.014857 0.029222
vn 0.999463 0.014857 0.029222
vn 0.999463 0.014857 0.029222
vn 0.999463 0.014857 0.029222
vn -0.995018 -0.099606 -0.004151
vn -0.995018 -0.099606 -0.004151
vn -0.995018 -0.099606 -0.004151
vn -0.995018 -0.099606 -0.004151
s off
g L_Pinky group9
usemtl initialShadingGroup
f 1/1/1 2/2/2 4/4/3 3/3/4
f 3/3/5 4/4/6 6/6/7 5/5/8
f 5/5/9 6/6/10 8/8/11 7/7/12
f 7/7/13 8/8/14 2/10/15 1/9/16
f 2/2/17 8/11/18 6/12/19 4/4/20
f 7/13/21 1/1/22 3/3/23 5/14/24
