# This file uses centimeters as units for non-parametric coordinates.

mtllib L_Thumb.mtl
g default
v 5.574922 9.355014 0.389365
v 6.054750 9.557841 0.549392
v 5.803196 11.366104 0.343598
v 6.357861 11.279050 0.523057
v 5.629591 11.125440 -0.345155
v 6.715113 10.896145 -0.290022
v 5.996376 9.398253 -0.224524
v 6.339703 9.486758 -0.129022
vt 0.375000 0.000000
vt 0.625000 0.000000
vt 0.375000 0.250000
vt 0.625000 0.250000
vt 0.375000 0.500000
vt 0.625000 0.500000
vt 0.375000 0.750000
vt 0.625000 0.750000
vt 0.375000 1.000000
vt 0.625000 1.000000
vt 0.875000 0.000000
vt 0.875000 0.250000
vt 0.125000 0.000000
vt 0.125000 0.250000
vn -0.317585 0.063493 0.946102
vn -0.317585 0.063493 0.946102
vn -0.317585 0.063493 0.946102
vn -0.317585 0.063493 0.946102
vn 0.225422 0.909239 -0.349955
vn 0.225422 0.909239 -0.349956
vn 0.225422 0.909239 -0.349956
vn 0.225422 0.909239 -0.349956
vn 0.095720 -0.089280 -0.991396
vn 0.095720 -0.089280 -0.991396
vn 0.095720 -0.089280 -0.991396
vn 0.095720 -0.089280 -0.991396
vn 0.280266 -0.944105 0.173541
vn 0.280266 -0.944105 0.173541
vn 0.280266 -0.944105 0.173541
vn 0.280266 -0.944105 0.173541
vn 0.886311 -0.166234 0.432225
vn 0.886311 -0.166234 0.432226
vn 0.886311 -0.166234 0.432225
vn 0.886311 -0.166234 0.432225
vn -0.982621 -0.044430 -0.180225
vn -0.982621 -0.044430 -0.180225
vn -0.982621 -0.044430 -0.180225
vn -0.982621 -0.044430 -0.180225
s off
g L_Thumb group9
usemtl initialShadingGroup
f 1/1/1 2/2/2 4/4/3 3/3/4
f 3/3/5 4/4/6 6/6/7 5/5/8
f 5/5/9 6/6/10 8/8/11 7/7/12
f 7/7/13 8/8/14 2/10/15 1/9/16
f 2/2/17 8/11/18 6/12/19 4/4/20
f 7/13/21 1/1/22 3/3/23 5/14/24
