# This file uses centimeters as units for non-parametric coordinates.

mtllib R_Pointer.mtl
g default
v -6.705415 9.069941 -0.912341
v -7.475600 9.206776 -1.044743
v -5.933237 11.183043 -0.506662
v -6.816968 11.183043 -0.506662
v -6.291654 11.183043 -1.512138
v -7.112837 11.183043 -1.512138
v -6.669187 9.165990 -1.562142
v -7.447355 9.330144 -1.830055
vt 0.375000 0.000000
vt 0.625000 0.000000
vt 0.375000 0.250000
vt 0.625000 0.250000
vt 0.375000 0.500000
vt 0.625000 0.500000
vt 0.375000 0.750000
vt 0.625000 0.750000
vt 0.375000 1.000000
vt 0.625000 1.000000
vt 0.875000 0.000000
vt 0.875000 0.250000
vt 0.125000 0.000000
vt 0.125000 0.250000
vn -0.094120 -0.192492 0.976774
vn -0.094120 -0.192492 0.976774
vn -0.094120 -0.192492 0.976774
vn -0.094120 -0.192492 0.976774
vn 0.000000 1.000000 0.000000
vn 0.000000 1.000000 0.000000
vn 0.000000 1.000000 0.000000
vn 0.000000 1.000000 0.000000
vn 0.171080 0.062006 -0.983304
vn 0.171080 0.062006 -0.983304
vn 0.171080 0.062006 -0.983304
vn 0.171080 0.062006 -0.983304
vn -0.149470 -0.976383 -0.155997
vn -0.149470 -0.976383 -0.155997
vn -0.149470 -0.976383 -0.155997
vn -0.149470 -0.976383 -0.155997
vn -0.963737 0.214460 0.158799
vn -0.963737 0.214460 0.158799
vn -0.963737 0.214460 0.158799
vn -0.963737 0.214460 0.158799
vn 0.949573 -0.242388 -0.198893
vn 0.949573 -0.242388 -0.198893
vn 0.949573 -0.242388 -0.198893
vn 0.949573 -0.242388 -0.198893
s off
g R_Pointer group8
usemtl initialShadingGroup
f 1/1/1 3/3/2 4/4/3 2/2/4
f 3/3/5 5/5/6 6/6/7 4/4/8
f 5/5/9 7/7/10 8/8/11 6/6/12
f 7/7/13 1/9/14 2/10/15 8/8/16
f 2/2/17 4/4/18 6/12/19 8/11/20
f 7/13/21 5/14/22 3/3/23 1/1/24
