# This file uses centimeters as units for non-parametric coordinates.

mtllib L_Arm2.mtl
g default
v 5.176586 14.610839 -0.356618
v 6.176116 15.148372 -0.566363
v 4.140672 17.577114 -0.254789
v 4.815933 18.205742 -0.239468
v 4.195235 17.577114 -1.607107
v 5.033388 18.205742 -1.695264
v 5.436098 14.610839 -2.081600
v 6.297878 15.148372 -1.567325
v 4.615051 16.017673 -0.254095
v 4.885710 16.017673 -1.929657
v 5.645545 16.685665 -1.808404
v 5.644221 16.685665 -0.342129
v 4.481052 18.300711 -0.335483
v 4.481052 18.300711 -1.797596
v 5.222285 16.324390 -2.091396
v 5.749119 14.878022 -2.487650
v 5.749119 14.878022 -0.282711
v 5.222285 16.324390 -0.199314
vt 0.375000 0.000000
vt 0.625000 0.000000
vt 0.375000 0.250000
vt 0.625000 0.250000
vt 0.375000 0.500000
vt 0.625000 0.500000
vt 0.375000 0.750000
vt 0.625000 0.750000
vt 0.375000 1.000000
vt 0.625000 1.000000
vt 0.875000 0.000000
vt 0.875000 0.250000
vt 0.125000 0.000000
vt 0.125000 0.250000
vt 0.375000 0.132708
vt 0.125000 0.132708
vt 0.375000 0.617292
vt 0.625000 0.617292
vt 0.875000 0.132708
vt 0.625000 0.132708
vt 0.498871 0.250000
vt 0.498871 0.500000
vt 0.498871 0.617292
vt 0.498871 0.750000
vt 0.498871 0.000000
vt 0.498871 1.000000
vt 0.498871 0.132708
vn -0.064870 -0.089508 0.993871
vn 0.145016 -0.029203 0.988998
vn 0.107468 0.009882 0.994160
vn -0.038373 -0.028444 0.998859
vn -0.918835 0.394240 -0.017813
vn -0.597685 0.801710 -0.005781
vn -0.613506 0.789665 -0.006288
vn -0.918835 0.394240 -0.017813
vn -0.540127 -0.056335 -0.839696
vn 0.107963 0.164510 -0.980449
vn 0.152560 0.179686 -0.971822
vn -0.614335 -0.081143 -0.784862
vn 0.525855 -0.849865 0.034725
vn 0.505798 -0.862197 0.028017
vn 0.505998 -0.862077 0.028084
vn 0.525855 -0.849865 0.034725
vn 0.932078 0.359260 0.046500
vn 0.932078 0.359260 0.046500
vn 0.916678 0.395341 0.058370
vn 0.916122 0.396569 0.058776
vn -0.924685 -0.352385 -0.144165
vn -0.924685 -0.352385 -0.144165
vn -0.930538 -0.345489 -0.121393
vn -0.929518 -0.346756 -0.125530
vn -0.935409 -0.338992 -0.100471
vn -0.935409 -0.338992 -0.100471
vn -0.455248 -0.029216 -0.889885
vn -0.028084 0.125114 -0.991745
vn 0.903475 0.423271 0.067644
vn 0.903475 0.423271 0.067644
vn 0.016233 0.033775 0.999298
vn -0.010723 0.034996 0.999330
vn 0.206031 0.978425 0.015355
vn 0.206031 0.978425 0.015355
vn 0.304046 0.225420 -0.925604
vn 0.488389 0.266398 -0.830968
vn 0.660617 0.296941 -0.689500
vn 0.475570 -0.879492 0.018063
vn 0.475570 -0.879492 0.018063
vn 0.415887 0.053974 0.907813
vn 0.218455 0.042735 0.974911
vn 0.050401 0.032191 0.998210
s 1
g L_Arm2 group9
usemtl initialShadingGroup
f 1/1/1 17/25/2 18/27/3 9/15/4
s 2
f 3/3/5 13/21/6 14/22/7 5/5/8
s 3
f 10/17/9 15/23/10 16/24/11 7/7/12
s 4
f 7/7/13 16/24/14 17/26/15 1/9/16
s 5
f 2/2/17 8/11/18 11/19/19 12/20/20
s 6
f 7/13/21 1/1/22 9/15/23 10/16/24
f 10/16/24 9/15/23 3/3/25 5/14/26
s 3
f 5/5/27 14/22/28 15/23/10 10/17/9
s 5
f 12/20/20 11/19/19 6/12/29 4/4/30
s 1
f 9/15/4 18/27/3 13/21/31 3/3/32
s 2
f 13/21/6 4/4/33 6/6/34 14/22/7
s 3
f 15/23/10 14/22/28 6/6/35 11/18/36
f 16/24/11 15/23/10 11/18/36 8/8/37
s 4
f 17/26/15 16/24/14 8/8/38 2/10/39
s 1
f 18/27/3 17/25/2 2/2/40 12/20/41
f 13/21/31 18/27/3 12/20/41 4/4/42
