# This file uses centimeters as units for non-parametric coordinates.

mtllib L_Leg.mtl
g default
v 0.584209 5.860719 -0.574395
v 1.245461 5.860719 -0.574395
v 0.833211 9.265831 0.031584
v 1.805208 9.033640 -0.412918
v 0.838401 9.381456 -1.772848
v 1.771801 9.379763 -1.465588
v 0.584209 5.860719 -1.111063
v 1.245461 5.860719 -1.111063
v 0.497356 7.588032 -0.370760
v 0.583982 7.600127 -1.249471
v 1.567759 7.588032 -1.239492
v 1.567759 7.588032 -0.370760
v 1.140294 9.362863 0.094489
v 1.140294 9.362863 -1.725850
v 1.027722 7.588032 -1.239492
v 0.911847 5.860719 -1.111063
v 0.911847 5.860719 -0.574395
v 1.027722 7.588032 -0.370760
vt 0.375000 0.000000
vt 0.625000 0.000000
vt 0.375000 0.250000
vt 0.625000 0.250000
vt 0.375000 0.500000
vt 0.625000 0.500000
vt 0.375000 0.750000
vt 0.625000 0.750000
vt 0.375000 1.000000
vt 0.625000 1.000000
vt 0.875000 0.000000
vt 0.875000 0.250000
vt 0.125000 0.000000
vt 0.125000 0.250000
vt 0.375000 0.132708
vt 0.125000 0.132708
vt 0.375000 0.617292
vt 0.625000 0.617292
vt 0.875000 0.132708
vt 0.625000 0.132708
vt 0.498871 0.250000
vt 0.498871 0.500000
vt 0.498871 0.617292
vt 0.498871 0.750000
vt 0.498871 0.000000
vt 0.498871 1.000000
vt 0.498871 0.132708
vn 0.000000 -0.117080 0.993122
vn 0.000000 -0.117080 0.993122
vn 0.099728 -0.160675 0.981956
vn -0.021401 -0.174404 0.984442
vn -0.133258 0.990584 0.031408
vn 0.081235 0.993653 0.077805
vn 0.078345 0.993933 0.077199
vn -0.133258 0.990584 0.031408
vn 0.036749 -0.178061 -0.983333
vn 0.087298 -0.165714 -0.982302
vn 0.005741 -0.075612 -0.997121
vn 0.011687 -0.077126 -0.996953
vn 0.000000 -1.000000 0.000000
vn 0.000000 -1.000000 0.000000
vn 0.000000 -1.000000 0.000000
vn 0.000000 -1.000000 0.000000
vn 0.983034 -0.183423 0.000000
vn 0.983034 -0.183423 0.000000
vn 0.987273 -0.157102 -0.024734
vn 0.987174 -0.157828 -0.024054
vn -0.997835 -0.023911 -0.061275
vn -0.997835 -0.023911 -0.061275
vn -0.993260 0.109963 -0.036638
vn -0.993047 0.111999 -0.036255
vn -0.985573 0.167279 -0.025763
vn -0.985573 0.167279 -0.025763
vn 0.061776 -0.278515 -0.958443
vn 0.154602 -0.237800 -0.958931
vn 0.989475 -0.138431 -0.042141
vn 0.989475 -0.138431 -0.042141
vn 0.185840 -0.195966 0.962840
vn -0.045312 -0.237918 0.970228
vn 0.252991 0.960868 0.112818
vn 0.252991 0.960868 0.112818
vn 0.214928 -0.209623 -0.953868
vn 0.137966 -0.161688 -0.977150
vn 0.000000 -0.074147 -0.997247
vn 0.000000 -1.000000 0.000000
vn 0.000000 -1.000000 0.000000
vn 0.000000 -0.117080 0.993122
vn 0.224615 -0.146090 0.963434
vn 0.345920 -0.159079 0.924680
s 1
g L_Leg1 group9
usemtl initialShadingGroup
f 1/1/1 17/25/2 18/27/3 9/15/4
s 2
f 3/3/5 13/21/6 14/22/7 5/5/8
s 3
f 10/17/9 15/23/10 16/24/11 7/7/12
s 4
f 7/7/13 16/24/14 17/26/15 1/9/16
s 5
f 2/2/17 8/11/18 11/19/19 12/20/20
s 6
f 7/13/21 1/1/22 9/15/23 10/16/24
f 10/16/24 9/15/23 3/3/25 5/14/26
s 3
f 5/5/27 14/22/28 15/23/10 10/17/9
s 5
f 12/20/20 11/19/19 6/12/29 4/4/30
s 1
f 9/15/4 18/27/3 13/21/31 3/3/32
s 2
f 13/21/6 4/4/33 6/6/34 14/22/7
s 3
f 15/23/10 14/22/28 6/6/35 11/18/36
f 16/24/11 15/23/10 11/18/36 8/8/37
s 4
f 17/26/15 16/24/14 8/8/38 2/10/39
s 1
f 18/27/3 17/25/2 2/2/40 12/20/41
f 13/21/31 18/27/3 12/20/41 4/4/42
