# This file uses centimeters as units for non-parametric coordinates.

mtllib L_Ring.mtl
g default
v 6.464071 9.289042 -1.866645
v 7.292760 9.301764 -1.975475
v 6.266559 11.198667 -1.713501
v 7.250704 11.172522 -1.669594
v 6.290485 11.198667 -2.718977
v 7.230739 11.198667 -2.718977
v 6.525255 9.325256 -2.799026
v 7.244234 9.335839 -3.008621
vt 0.375000 0.000000
vt 0.625000 0.000000
vt 0.375000 0.250000
vt 0.625000 0.250000
vt 0.375000 0.500000
vt 0.625000 0.500000
vt 0.375000 0.750000
vt 0.625000 0.750000
vt 0.375000 1.000000
vt 0.625000 1.000000
vt 0.875000 0.000000
vt 0.875000 0.250000
vt 0.125000 0.000000
vt 0.125000 0.250000
vn 0.034664 -0.118300 0.992373
vn 0.034664 -0.118300 0.992373
vn 0.034664 -0.118300 0.992373
vn 0.034664 -0.118300 0.992373
vn 0.013293 0.999830 0.012746
vn 0.013293 0.999830 0.012746
vn 0.013293 0.999830 0.012746
vn 0.013293 0.999830 0.012746
vn -0.125383 0.089436 -0.988069
vn -0.125383 0.089436 -0.988069
vn -0.125383 0.089436 -0.988069
vn -0.125383 0.089436 -0.988069
vn 0.007706 -0.999333 -0.035688
vn 0.007706 -0.999333 -0.035688
vn 0.007706 -0.999333 -0.035688
vn 0.007706 -0.999333 -0.035688
vn 0.999278 0.020018 -0.032286
vn 0.999278 0.020018 -0.032286
vn 0.999278 0.020018 -0.032286
vn 0.999278 0.020018 -0.032286
vn -0.992812 -0.110632 -0.045672
vn -0.992812 -0.110632 -0.045672
vn -0.992812 -0.110632 -0.045672
vn -0.992812 -0.110632 -0.045672
s off
g L_Ring group9
usemtl initialShadingGroup
f 1/1/1 2/2/2 4/4/3 3/3/4
f 3/3/5 4/4/6 6/6/7 5/5/8
f 5/5/9 6/6/10 8/8/11 7/7/12
f 7/7/13 8/8/14 2/10/15 1/9/16
f 2/2/17 8/11/18 6/12/19 4/4/20
f 7/13/21 1/1/22 3/3/23 5/14/24
