# This file uses centimeters as units for non-parametric coordinates.

mtllib R_Hand.mtl
g default
v -5.669053 11.317449 0.144975
v -6.664258 11.208312 0.065317
v -5.231649 15.011565 -0.025524
v -6.009313 15.379647 -0.417403
v -5.231649 15.011565 -2.112927
v -6.009313 15.379647 -2.211825
v -6.235259 11.317438 -3.695042
v -7.133711 11.532016 -3.129278
v -5.530573 13.102300 0.044580
v -5.862062 13.102300 -2.512522
v -6.662406 13.546867 -2.872981
v -6.662406 13.546867 -0.638441
v -5.616968 15.193943 -0.009329
v -5.616968 15.193943 -2.406318
v -6.188534 13.322576 -3.272733
v -6.751130 11.332809 -3.889892
v -6.191263 11.250376 0.562317
v -6.188534 13.322576 0.184204
vt 0.375000 0.000000
vt 0.625000 0.000000
vt 0.375000 0.250000
vt 0.625000 0.250000
vt 0.375000 0.500000
vt 0.625000 0.500000
vt 0.375000 0.750000
vt 0.625000 0.750000
vt 0.375000 1.000000
vt 0.625000 1.000000
vt 0.875000 0.000000
vt 0.875000 0.250000
vt 0.125000 0.000000
vt 0.125000 0.250000
vt 0.375000 0.132708
vt 0.125000 0.132708
vt 0.375000 0.617292
vt 0.625000 0.617292
vt 0.875000 0.132708
vt 0.625000 0.132708
vt 0.498871 0.250000
vt 0.498871 0.500000
vt 0.498871 0.617292
vt 0.498871 0.750000
vt 0.498871 0.000000
vt 0.498871 1.000000
vt 0.498871 0.132708
vn 0.434935 0.095163 0.895419
vn 0.328065 0.070597 0.942014
vn -0.451950 0.166388 0.876388
vn -0.393550 0.160070 0.905260
vn 0.427815 0.903866 0.000000
vn 0.427815 0.903866 0.000000
vn 0.427816 0.903866 0.000000
vn 0.427816 0.903866 0.000000
vn 0.795302 0.011120 -0.606111
vn 0.758977 0.117208 -0.640482
vn -0.020282 0.331841 -0.943117
vn 0.124614 0.292576 -0.948088
vn 0.046270 -0.998797 -0.016211
vn 0.046270 -0.998797 -0.016211
vn -0.031135 -0.999319 -0.019801
vn -0.027818 -0.999420 -0.019650
vn -0.988820 0.116976 0.092477
vn -0.978046 0.200060 0.058326
vn -0.979865 0.189559 0.062707
vn -0.988820 0.116976 0.092477
vn 0.985400 -0.099328 -0.138279
vn 0.982975 -0.142494 -0.115996
vn 0.981710 -0.156219 -0.108816
vn 0.985400 -0.099328 -0.138279
vn 0.970661 -0.230257 -0.069278
vn 0.970661 -0.230257 -0.069278
vn 0.814879 -0.066248 -0.575833
vn 0.345252 0.236713 -0.908167
vn -0.941981 0.335666 0.000000
vn -0.941981 0.335666 0.000000
vn 0.159721 0.032026 0.986643
vn -0.475267 0.189820 0.859121
vn 0.427816 0.903866 0.000000
vn 0.427816 0.903866 0.000000
vn -0.534643 0.396714 -0.746174
vn -0.348206 0.453468 -0.820439
vn -0.702699 0.320021 -0.635453
vn -0.188552 -0.981699 -0.026759
vn -0.188552 -0.981699 -0.026759
vn -0.772735 0.199786 0.602467
vn -0.794212 0.145529 0.589956
vn -0.752787 0.244347 0.611234
s 1
g R_Hand group8
usemtl initialShadingGroup
f 1/1/1 9/15/2 18/27/3 17/25/4
s 2
f 3/3/5 5/5/6 14/22/7 13/21/8
s 3
f 10/17/9 7/7/10 16/24/11 15/23/12
s 4
f 7/7/13 1/9/14 17/26/15 16/24/16
s 5
f 2/2/17 12/20/18 11/19/19 8/11/20
s 6
f 7/13/21 10/16/22 9/15/23 1/1/24
f 10/16/22 5/14/25 3/3/26 9/15/23
s 3
f 5/5/27 10/17/9 15/23/12 14/22/28
s 5
f 12/20/18 4/4/29 6/12/30 11/19/19
s 1
f 9/15/2 3/3/31 13/21/32 18/27/3
s 2
f 13/21/8 14/22/7 6/6/33 4/4/34
s 3
f 15/23/12 11/18/35 6/6/36 14/22/28
f 16/24/11 8/8/37 11/18/35 15/23/12
s 4
f 17/26/15 2/10/38 8/8/39 16/24/16
s 1
f 18/27/3 12/20/40 2/2/41 17/25/4
f 13/21/32 4/4/42 12/20/40 18/27/3
